HIERARCHY
ROOT hip
{
  OFFSET 0 0 0
  CHANNELS 6 Xposition Yposition Zposition Zrotation Yrotation Xrotation
  JOINT abdomen
  {
    OFFSET 0 20.6881 -0.73152
    CHANNELS 3 Zrotation Xrotation Yrotation
    JOINT chest
    {
      OFFSET 0 11.7043 -0.48768
      CHANNELS 3 Zrotation Xrotation Yrotation
      JOINT neck
      {
        OFFSET 0 22.1894 -2.19456
        CHANNELS 3 Zrotation Xrotation Yrotation
        JOINT head
        {
          OFFSET -0.24384 7.07133 1.2192
          CHANNELS 3 Zrotation Xrotation Yrotation
          JOINT leftEye
          {
            OFFSET 4.14528 8.04674 8.04672
            CHANNELS 3 Zrotation Xrotation Yrotation
            End Site
            {
              OFFSET 1 0 0
            }
          }
          JOINT rightEye
          {
            OFFSET -3.6576 8.04674 8.04672
            CHANNELS 3 Zrotation Xrotation Yrotation
            End Site
            {
              OFFSET 1 0 0
            }
          }
        }
      }
      JOINT rCollar
      {
        OFFSET -2.68224 19.2634 -4.8768
        CHANNELS 3 Zrotation Xrotation Yrotation
        JOINT rShldr
        {
          OFFSET -8.77824 -1.95073 1.46304
          CHANNELS 3 Zrotation Xrotation Yrotation
          JOINT rForeArm
          {
            OFFSET -28.1742 -1.7115 0.48768
            CHANNELS 3 Zrotation Xrotation Yrotation
            JOINT rHand
            {
              OFFSET -22.5879 0.773209 7.07136
              CHANNELS 3 Zrotation Xrotation Yrotation
              JOINT rThumb1
              {
                OFFSET -1.2192 -0.487915 3.41376
                CHANNELS 3 Zrotation Xrotation Yrotation
                JOINT rThumb2
                {
                  OFFSET -3.37035 -0.52449 3.41376
                  CHANNELS 3 Zrotation Xrotation Yrotation
                  End Site
                  {
                    OFFSET -1.78271 -1.18214 1.43049
                  }
                }
              }
              JOINT rIndex1
              {
                OFFSET -7.75947 0.938293 5.60832
                CHANNELS 3 Zrotation Xrotation Yrotation
                JOINT rIndex2
                {
                  OFFSET -2.54057 -0.884171 1.56538
                  CHANNELS 3 Zrotation Xrotation Yrotation
                  End Site
                  {
                    OFFSET -1.62519 -0.234802 1.16502
                  }
                }
              }
              JOINT rMid1
              {
                OFFSET -8.24714 1.18213 3.41376
                CHANNELS 3 Zrotation Xrotation Yrotation
                JOINT rMid2
                {
                  OFFSET -3.10165 -0.590103 1.0647
                  CHANNELS 3 Zrotation Xrotation Yrotation
                  End Site
                  {
                    OFFSET -2.48547 -0.328903 0.83742
                  }
                }
              }
              JOINT rRing1
              {
                OFFSET -8.82822 0.546677 1.51678
                CHANNELS 3 Zrotation Xrotation Yrotation
                JOINT rRing2
                {
                  OFFSET -2.60934 -0.819778 -0.0198488
                  CHANNELS 3 Zrotation Xrotation Yrotation
                  End Site
                  {
                    OFFSET -2.33842 -0.294052 0.168128
                  }
                }
              }
              JOINT rPinky1
              {
                OFFSET -8.27202 -0.0477905 -0.4584
                CHANNELS 3 Zrotation Xrotation Yrotation
                JOINT rPinky2
                {
                  OFFSET -1.82734 -0.647385 -0.700984
                  CHANNELS 3 Zrotation Xrotation Yrotation
                  End Site
                  {
                    OFFSET -1.69225 -0.51767 -0.607171
                  }
                }
              }
            }
          }
        }
      }
      JOINT lCollar
      {
        OFFSET 2.68224 19.2634 -4.8768
        CHANNELS 3 Zrotation Xrotation Yrotation
        JOINT lShldr
        {
          OFFSET 8.77824 -1.95073 1.46304
          CHANNELS 3 Zrotation Xrotation Yrotation
          JOINT lForeArm
          {
            OFFSET 28.1742 -1.7115 0.48768
            CHANNELS 3 Zrotation Xrotation Yrotation
            JOINT lHand
            {
              OFFSET 22.5879 0.773209 7.07136
              CHANNELS 3 Zrotation Xrotation Yrotation
              JOINT lThumb1
              {
                OFFSET 1.2192 -0.487915 3.41376
                CHANNELS 3 Zrotation Xrotation Yrotation
                JOINT lThumb2
                {
                  OFFSET 3.37035 -0.52449 3.41376
                  CHANNELS 3 Zrotation Xrotation Yrotation
                  End Site
                  {
                    OFFSET 1.78271 -1.18214 1.43049
                  }
                }
              }
              JOINT lIndex1
              {
                OFFSET 7.75947 0.938293 5.60832
                CHANNELS 3 Zrotation Xrotation Yrotation
                JOINT lIndex2
                {
                  OFFSET 2.54057 -0.884171 1.56538
                  CHANNELS 3 Zrotation Xrotation Yrotation
                  End Site
                  {
                    OFFSET 1.62519 -0.234802 1.16502
                  }
                }
              }
              JOINT lMid1
              {
                OFFSET 8.24714 1.18213 3.41376
                CHANNELS 3 Zrotation Xrotation Yrotation
                JOINT lMid2
                {
                  OFFSET 3.10165 -0.590103 1.0647
                  CHANNELS 3 Zrotation Xrotation Yrotation
                  End Site
                  {
                    OFFSET 2.48547 -0.328903 0.83742
                  }
                }
              }
              JOINT lRing1
              {
                OFFSET 8.82822 0.546677 1.51678
                CHANNELS 3 Zrotation Xrotation Yrotation
                JOINT lRing2
                {
                  OFFSET 2.60934 -0.819778 -0.0198488
                  CHANNELS 3 Zrotation Xrotation Yrotation
                  End Site
                  {
                    OFFSET 2.33842 -0.294052 0.168128
                  }
                }
              }
              JOINT lPinky1
              {
                OFFSET 8.27202 -0.0477905 -0.4584
                CHANNELS 3 Zrotation Xrotation Yrotation
                JOINT lPinky2
                {
                  OFFSET 1.82734 -0.647385 -0.700984
                  CHANNELS 3 Zrotation Xrotation Yrotation
                  End Site
                  {
                    OFFSET 1.69225 -0.51767 -0.607171
                  }
                }
              }
            }
          }
        }
      }
    }
  }
  JOINT rButtock
  {
    OFFSET -8.77824 4.35084 1.2192
    CHANNELS 3 Zrotation Xrotation Yrotation
    JOINT rThigh
    {
      OFFSET 0 -1.70687 -2.19456
      CHANNELS 3 Zrotation Xrotation Yrotation
      JOINT rShin
      {
        OFFSET 0 -36.8199 0.73152
        CHANNELS 3 Zrotation Xrotation Yrotation
        JOINT rFoot
        {
          OFFSET 0.73152 -45.1104 -5.12064
          CHANNELS 3 Zrotation Xrotation Yrotation
          End Site
          {
            OFFSET -1.1221 -3.69964 12.103
          }
        }
      }
    }
  }
  JOINT lButtock
  {
    OFFSET 8.77824 4.35084 1.2192
    CHANNELS 3 Zrotation Xrotation Yrotation
    JOINT lThigh
    {
      OFFSET 0 -1.70687 -2.19456
      CHANNELS 3 Zrotation Xrotation Yrotation
      JOINT lShin
      {
        OFFSET 0 -36.8199 0.73152
        CHANNELS 3 Zrotation Xrotation Yrotation
        JOINT lFoot
        {
          OFFSET -0.73152 -45.1104 -5.12064
          CHANNELS 3 Zrotation Xrotation Yrotation
          End Site
          {
            OFFSET 1.1221 -3.69964 12.103
          }
        }
      }
    }
  }
}
MOTION
Frames:	8
Frame Time:	0.00833333
-4.65665 81.8046 33.4508 -178.364 -3.6969 -172.29 5.52875 4.90835 -5.63733 4.77863 1.38323 -1.64765 -6.1835 9.04917 -9.52781 10.7251 -5.02749 -15.8081 -0.0 0.0 0.0 -0.0 0.0 0.0 -8.07741e-14 2.77795e-13 5.34059e-14 77.6534 -22.9687 -11.1468 -15.4825 -8.21472 28.5886 -3.07255 -43.5628 -7.68074 -2.36708e-09 -5.84662e-10 9.6489e-10 -4.11875e-09 -9.54687e-10 1.58787e-09 -2.36708e-09 -5.84653e-10 9.64873e-10 7.73091 5.47488 0.417314 -2.36709e-09 -5.84653e-10 9.64892e-10 2.90554 0.965183 0.102902 -2.36707e-09 -5.84651e-10 9.64885e-10 10.2786 0.731801 0.0259123 -2.36708e-09 -5.84654e-10 9.64889e-10 2.22167 -0.733487 -0.20892 -8.10124e-14 2.77782e-13 5.32242e-14 -82.525 11.2933 2.19582 10.7977 -4.64318 -19.3028 0.18984 12.5395 -1.78953 -4.52954e-10 6.95815e-10 4.18969e-09 -7.35852e-10 1.21156e-09 7.24489e-09 -4.52958e-10 6.95821e-10 4.18969e-09 -7.73091 5.47488 -0.417314 -4.52951e-10 6.95818e-10 4.18968e-09 -2.90554 0.965183 -0.102902 -4.52964e-10 6.95821e-10 4.18969e-09 -10.2786 0.731801 -0.0259123 -4.52955e-10 6.95822e-10 4.18968e-09 -2.22167 -0.733487 0.20892 -2.03217e-16 0.0 -3.88251e-19 9.41167 -22.6553 8.69434 -0.161571 31.248 0.279971 -1.09813 -8.83336 -2.58298 2.03217e-16 0.0 3.88251e-19 7.95904 -26.0337 10.5067 1.17177 61.0452 -1.47844 0.947995 -1.46694 3.74295
-4.79839 81.7034 32.5604 -178.416 -3.4579 -172.216 5.78557 4.96567 -5.5962 4.65396 1.36932 -1.64255 -6.16961 8.93822 -9.36989 10.4227 -5.36464 -15.5552 -0.0 0.0 0.0 -0.0 0.0 0.0 -8.95195e-14 2.75124e-13 4.06018e-14 77.5861 -23.4798 -11.8059 -15.4821 -8.21478 28.5868 -3.15188 -43.9807 -7.79489 -2.45478e-09 -5.82525e-10 9.15255e-10 -4.26899e-09 -9.45795e-10 1.49907e-09 -2.45478e-09 -5.82517e-10 9.15236e-10 7.73091 5.47488 0.417314 -2.45478e-09 -5.82516e-10 9.15249e-10 2.90554 0.965183 0.102902 -2.45477e-09 -5.82515e-10 9.15248e-10 10.2786 0.731801 0.0259123 -2.45478e-09 -5.82518e-10 9.15249e-10 2.22167 -0.733487 -0.20892 -8.97901e-14 2.7511e-13 4.0403e-14 -82.6313 9.51813 2.59214 10.445 -4.41623 -18.6386 0.242965 13.8993 -1.99307 -2.56867e-10 7.63104e-10 4.48212e-09 -3.91505e-10 1.3286e-09 7.74895e-09 -2.56872e-10 7.6311e-10 4.48212e-09 -7.73091 5.47488 -0.417314 -2.56864e-10 7.63108e-10 4.48211e-09 -2.90554 0.965183 -0.102902 -2.56878e-10 7.6311e-10 4.48212e-09 -10.2786 0.731801 -0.0259123 -2.56868e-10 7.63112e-10 4.48211e-09 -2.22167 -0.733487 0.20892 -2.03217e-16 0.0 -3.88251e-19 9.66823 -22.1469 8.52792 -0.157762 31.325 0.318773 -1.16149 -8.99711 -2.79347 2.03217e-16 0.0 3.88251e-19 8.45982 -27.3889 10.5015 1.15267 60.8148 -1.47424 1.02656 -2.50085 3.76518
-4.91094 81.5956 31.652 -178.363 -3.0198 -172.107 5.89271 5.05324 -5.41125 4.5276 1.29763 -1.59826 -6.16135 8.93779 -9.20693 10.2426 -5.76422 -15.2777 -0.0 0.0 0.0 -0.0 0.0 0.0 -8.7433e-14 2.12829e-13 3.78203e-14 77.5248 -23.8882 -12.4977 -15.4854 -8.21755 28.5939 -3.21266 -44.2962 -7.88198 -1.96245e-09 -3.87125e-10 5.74185e-10 -3.40851e-09 -6.14184e-10 9.2712e-10 -1.96245e-09 -3.87119e-10 5.74169e-10 7.73091 5.47488 0.417314 -1.96245e-09 -3.87119e-10 5.74176e-10 2.90554 0.965183 0.102902 -1.96244e-09 -3.87118e-10 5.74177e-10 10.2786 0.731801 0.0259123 -1.96245e-09 -3.8712e-10 5.74179e-10 2.22167 -0.733487 -0.20892 -8.7674e-14 2.12817e-13 3.75979e-14 -82.6961 8.00119 3.10087 10.2136 -4.26721 -18.2109 0.268758 14.4393 -2.0751 7.70977e-11 5.13468e-10 3.91604e-09 1.80053e-10 8.9546e-10 6.76735e-09 7.70937e-11 5.13473e-10 3.91604e-09 -7.73091 5.47488 -0.417314 7.71003e-11 5.13472e-10 3.91603e-09 -2.90554 0.965183 -0.102902 7.70889e-11 5.13473e-10 3.91604e-09 -10.2786 0.731801 -0.0259123 7.70996e-11 5.13475e-10 3.91603e-09 -2.22167 -0.733487 0.20892 -2.03217e-16 0.0 -3.88251e-19 9.85578 -21.6568 8.43659 -0.155366 31.483 0.359281 -1.23444 -9.35593 -3.001 2.03217e-16 0.0 3.88251e-19 8.83931 -28.6063 10.5371 1.11905 60.3613 -1.45443 1.11967 -3.48816 3.90312
-4.97254 81.5219 30.7439 -178.134 -2.4486 -171.97 5.91559 5.16679 -5.13862 4.39827 1.18683 -1.53066 -6.16002 9.01016 -9.03445 10.1413 -6.22806 -14.9737 -0.0 0.0 0.0 -0.0 0.0 0.0 -7.76539e-14 1.10528e-13 3.91109e-14 77.4753 -24.2103 -13.1913 -15.5026 -8.23279 28.6301 -3.26587 -44.5696 -7.95802 -1.10514e-09 -5.72533e-11 4.1582e-11 -1.91178e-09 -5.76142e-11 3.7079e-11 -1.10513e-09 -5.72499e-11 4.15709e-11 7.73091 5.47488 0.417314 -1.10513e-09 -5.725e-11 4.15731e-11 2.90554 0.965183 0.102902 -1.10513e-09 -5.72496e-11 4.15765e-11 10.2786 0.731801 0.0259123 -1.10513e-09 -5.7251e-11 4.15788e-11 2.22167 -0.733487 -0.20892 -7.78256e-14 1.10519e-13 3.88593e-14 -82.7305 6.62929 3.69746 10.0902 -4.19174 -17.9783 0.265969 14.3747 -2.06534 5.37872e-10 9.10229e-11 2.78919e-09 9.63532e-10 1.62075e-10 4.81518e-09 5.37869e-10 9.10264e-11 2.7892e-09 -7.73091 5.47488 -0.417314 5.37874e-10 9.10253e-11 2.78918e-09 -2.90554 0.965183 -0.102902 5.37867e-10 9.10263e-11 2.78919e-09 -10.2786 0.731801 -0.0259123 5.37878e-10 9.10283e-11 2.78918e-09 -2.22167 -0.733487 0.20892 -2.03217e-16 0.0 -3.88251e-19 10.004 -21.1698 8.3763 -0.153923 31.6854 0.401435 -1.31879 -9.81577 -3.22416 2.03217e-16 0.0 3.88251e-19 9.13925 -29.7257 10.5752 1.07315 59.7066 -1.42189 1.22017 -4.40732 4.08524
-5.07695 81.4195 29.8537 -178.101 -1.9767 -171.931 5.89393 5.2949 -4.85039 4.26869 1.06182 -1.44903 -6.14584 9.07598 -8.8508 10.0387 -6.70723 -14.6512 -0.0 0.0 0.0 -0.0 0.0 0.0 -6.07166e-14 7.43263e-15 4.13705e-14 77.4266 -24.4892 -13.8223 -15.5093 -8.23874 28.6441 -3.30413 -44.7642 -8.01254 -1.98953e-10 2.71081e-10 -4.66665e-10 -3.31315e-10 4.9405e-10 -8.09318e-10 -1.98948e-10 2.71081e-10 -4.66671e-10 7.73091 5.47488 0.417314 -1.98949e-10 2.71081e-10 -4.66673e-10 2.90554 0.965183 0.102902 -1.98943e-10 2.71081e-10 -4.66668e-10 10.2786 0.731801 0.0259123 -1.98953e-10 2.71081e-10 -4.66664e-10 2.22167 -0.733487 -0.20892 -6.081e-14 7.4258e-15 4.10914e-14 -82.7444 5.41007 4.30802 10.0218 -4.15303 -17.8452 0.248657 13.9921 -2.00741 9.21807e-10 -3.49343e-10 1.53124e-09 1.61242e-09 -6.02602e-10 2.63719e-09 9.21806e-10 -3.49341e-10 1.53126e-09 -7.73091 5.47488 -0.417314 9.2181e-10 -3.49342e-10 1.53124e-09 -2.90554 0.965183 -0.102902 9.21807e-10 -3.49342e-10 1.53125e-09 -10.2786 0.731801 -0.0259123 9.21818e-10 -3.4934e-10 1.53124e-09 -2.22167 -0.733487 0.20892 -2.03217e-16 0.0 -3.88251e-19 10.1231 -20.6766 8.35694 -0.152545 31.8551 0.442633 -1.40556 -10.2993 -3.44401 2.03217e-16 0.0 3.88251e-19 9.39586 -30.7747 10.5805 1.01805 58.8651 -1.37972 1.32753 -5.25315 4.30968
-5.15777 81.3648 28.9864 -177.946 -1.5409 -171.789 5.86824 5.42619 -4.61875 4.14141 0.947505 -1.36264 -6.09803 9.05576 -8.65449 9.85336 -7.15246 -14.3178 -0.0 0.0 0.0 -0.0 0.0 0.0 -3.71557e-14 -5.72477e-14 4.14963e-14 77.3668 -24.7686 -14.327 -15.481 -8.2137 28.5843 -3.31983 -44.8436 -8.03487 4.39985e-10 4.61867e-10 -7.34667e-10 7.80352e-10 8.10946e-10 -1.25034e-09 4.3999e-10 4.61866e-10 -7.3467e-10 7.73091 5.47488 0.417314 4.39989e-10 4.61866e-10 -7.34673e-10 2.90554 0.965183 0.102902 4.39995e-10 4.61865e-10 -7.34668e-10 10.2786 0.731801 0.0259123 4.39983e-10 4.61866e-10 -7.34664e-10 2.22167 -0.733487 -0.20892 -3.71922e-14 -5.72525e-14 4.11981e-14 -82.7549 4.351 4.85913 9.95425 -4.11366 -17.7157 0.231584 13.5778 -1.94515 1.02526e-09 -6.52742e-10 5.71886e-10 1.78021e-09 -1.12962e-09 9.78108e-10 1.02526e-09 -6.52741e-10 5.71908e-10 -7.73091 5.47488 -0.417314 1.02526e-09 -6.52742e-10 5.71883e-10 -2.90554 0.965183 -0.102902 1.02526e-09 -6.52742e-10 5.71888e-10 -10.2786 0.731801 -0.0259123 1.02527e-09 -6.5274e-10 5.71876e-10 -2.22167 -0.733487 0.20892 -2.03217e-16 0.0 -3.88251e-19 10.2234 -20.168 8.38836 -0.150049 31.9148 0.480116 -1.4839 -10.7293 -3.6412 2.03217e-16 0.0 3.88251e-19 9.64261 -31.7811 10.5168 0.956831 57.8515 -1.33101 1.44068 -6.02046 4.57453
-5.20218 81.4154 28.1157 -177.692 -1.0626 -171.557 5.84844 5.56583 -4.47646 4.01368 0.841295 -1.26536 -5.99697 8.90564 -8.44653 9.54395 -7.54054 -13.9812 -0.0 0.0 0.0 -0.0 0.0 0.0 1.8666e-15 -6.47892e-14 3.76643e-14 77.3046 -25.0591 -14.6785 -15.409 -8.14959 28.434 -3.30733 -44.7804 -8.01709 7.11821e-10 4.49904e-10 -6.38528e-10 1.24703e-09 7.81071e-10 -1.07566e-09 7.11827e-10 4.49903e-10 -6.38533e-10 7.73091 5.47488 0.417314 7.11824e-10 4.49902e-10 -6.38533e-10 2.90554 0.965183 0.102902 7.1183e-10 4.49901e-10 -6.38528e-10 10.2786 0.731801 0.0259123 7.11817e-10 4.49902e-10 -6.38524e-10 2.22167 -0.733487 -0.20892 1.86076e-15 -6.47934e-14 3.73603e-14 -82.7775 3.47522 5.32711 9.87468 -4.0653 -17.5671 0.216117 13.143 -1.88043 6.77103e-10 -7.72169e-10 2.58565e-12 1.17237e-09 -1.33747e-09 -2.17665e-12 6.77102e-10 -7.72168e-10 2.6075e-12 -7.73091 5.47488 -0.417314 6.77105e-10 -7.72169e-10 2.58234e-12 -2.90554 0.965183 -0.102902 6.77103e-10 -7.72169e-10 2.58907e-12 -10.2786 0.731801 -0.0259123 6.77114e-10 -7.72167e-10 2.57917e-12 -2.22167 -0.733487 0.20892 -2.03217e-16 0.0 -3.88251e-19 10.3162 -19.6579 8.4928 -0.145721 31.8583 0.514275 -1.5648 -11.1279 -3.86136 2.03217e-16 0.0 3.88251e-19 9.87289 -32.7839 10.3515 0.891439 56.6785 -1.27784 1.5578 -6.69317 4.87367
-5.29986 81.4397 27.2361 -177.711 -0.5517 -171.355 5.81357 5.71718 -4.38058 3.88541 0.732984 -1.15512 -5.85692 8.67533 -8.22759 9.16007 -7.90089 -13.6352 -0.0 0.0 0.0 -0.0 0.0 0.0 5.3642e-14 -3.88601e-14 3.18615e-14 77.2468 -25.3403 -14.9124 -15.3065 -8.05837 28.2219 -3.27177 -44.5999 -7.96646 7.90335e-10 3.17373e-10 -3.15497e-10 1.37302e-09 5.43921e-10 -5.16159e-10 7.90342e-10 3.17374e-10 -3.15506e-10 7.73091 5.47488 0.417314 7.90337e-10 3.17372e-10 -3.155e-10 2.90554 0.965183 0.102902 7.90343e-10 3.17371e-10 -3.15496e-10 10.2786 0.731801 0.0259123 7.90329e-10 3.17372e-10 -3.15494e-10 2.22167 -0.733487 -0.20892 5.36556e-14 -3.88643e-14 3.15602e-14 -82.8111 2.77133 5.75304 9.8118 -4.02749 -17.4494 0.19688 12.5568 -1.7937 2.48924e-11 -7.92131e-10 -3.98116e-10 4.10741e-11 -1.37287e-09 -6.87952e-10 2.4892e-11 -7.92131e-10 -3.98097e-10 -7.73091 5.47488 -0.417314 2.48948e-11 -7.92131e-10 -3.98119e-10 -2.90554 0.965183 -0.102902 2.48902e-11 -7.92131e-10 -3.98111e-10 -10.2786 0.731801 -0.0259123 2.49007e-11 -7.92129e-10 -3.98117e-10 -2.22167 -0.733487 0.20892 -2.03217e-16 0.0 -3.88251e-19 10.3904 -19.1459 8.65755 -0.140001 31.722 0.546035 -1.64949 -11.5219 -4.09793 2.03217e-16 0.0 3.88251e-19 10.0663 -33.7581 10.1066 0.822399 55.3355 -1.2206 1.6804 -7.27874 5.2098
